<?xml version="1.0" standalone="no"?><!DOCTYPE svg PUBLIC "-//W3C//DTD SVG 1.1//EN" "http://www.w3.org/Graphics/SVG/1.1/DTD/svg11.dtd"><svg class="icon" width="400px" height="400.00px" viewBox="0 0 1024 1024" version="1.1" xmlns="http://www.w3.org/2000/svg"><path fill="#ffffff" d="M695.5 573.2C856.2 385.9 1012.7 41.4 548 65.2c-298.3 0-447.4 149.1-447.4 447.4C100.5 810.8 249.7 960 548 960c256.9 0 339.1-104.5 369.3-198.6 51.2-159.5-232.3-123-221.8-188.2zM197.9 381c-13.9-59.9 9.2-96.8 69-110.6 59.9-13.9 96.8 9.1 110.6 69 13.9 59.9-9.2 96.8-69.1 110.6-59.8 13.9-96.7-9.1-110.5-69z m120.4 320c-53.1 12.3-85.9-8.1-98.1-61.3-12.3-53.1 8.1-85.8 61.3-98.1 53.1-12.3 85.9 8.1 98.1 61.2 12.3 53.2-8.1 85.9-61.3 98.2z m205 162.6c-53.1 12.3-85.9-8.1-98.1-61.3-12.3-53.2 8.1-85.9 61.3-98.1 53.1-12.3 85.9 8.1 98.1 61.3 12.2 53.1-8.2 85.8-61.3 98.1z m56.1-505.1c-67.1 15.6-108.5-10.3-124-77.4s10.3-108.5 77.4-124 108.5 10.3 124 77.4c15.5 67.1-10.3 108.5-77.4 124z m164.7 430.1c-33.4 7.7-54-5.1-61.7-38.6-7.7-33.3 5.1-54 38.5-61.7s54 5.1 61.7 38.5c7.8 33.5-5.1 54.1-38.5 61.8z"  /></svg>