<?xml version="1.0" standalone="no"?><!DOCTYPE svg PUBLIC "-//W3C//DTD SVG 1.1//EN" "http://www.w3.org/Graphics/SVG/1.1/DTD/svg11.dtd"><svg class="icon" width="150" height="150"   viewBox="0 0 1024 1024" version="1.1" xmlns="http://www.w3.org/2000/svg"><path d="M606.5 138.7C304.4 142.3 11.4 366.1 72 654.5c32.8 156.3 121.9 63.5 159.6-20.1 37.1-82.7 140.7-77 128.7 25.4-43.5 371.7 309.2 209 489.9 41.7 237.9-220.3 58.2-566.4-243.7-562.8zM229.7 514.3c-39.9 10.3-79.3-8.1-87.9-41.4-8.6-33.3 16.8-68.6 56.7-79 39.9-10.3 79.3 8.2 87.8 41.4 8.8 33.4-16.7 68.7-56.6 79zM365.3 392c-42.8-19.8-63.1-66.8-45.4-104.8 17.7-38.1 66.7-52.9 109.3-33s63 66.8 45.3 104.8c-17.6 38-66.6 52.9-109.2 33zM597 753.5c-47.3 20.4-98.9 6.4-115.3-31.4-16.4-37.8 8.7-85.2 56-105.6 47.3-20.4 98.9-6.3 115.3 31.5 16.4 37.8-8.7 85.1-56 105.5z m12.1-449.1c-31.7 0-57.5-25.8-57.5-57.5s25.7-57.5 57.5-57.5c31.7 0 57.4 25.8 57.4 57.5s-25.7 57.5-57.4 57.5z m219.5 103.8c-32 12.6-70.1-8.3-85.2-46.7-15.1-38.4-1.5-79.7 30.4-92.3 31.8-12.6 70 8.3 85.1 46.6 15.3 38.5 1.7 79.7-30.3 92.4z" /></svg>